<svg width="80" height="80" viewBox="0 0 80 80" fill="none" xmlns="http://www.w3.org/2000/svg">
<g clip-path="url(#clip0)">
<path d="M29.106 64.8482C29.8713 63.726 31.0899 63.1106 32.3507 63.0485L35.4392 58.5197C34.9449 57.4846 34.9863 56.2258 35.6803 55.2082C36.3733 54.1921 37.5301 53.6939 38.6752 53.7748L41.7515 49.264L30.7361 41.7515L16.4897 62.641C15.991 63.3722 15.8045 64.2698 15.9687 65.1383L16.5869 68.4145L21.5976 71.8317L25.1893 71.4549C26.1644 71.3533 27.045 70.8282 27.5972 70.0185L28.6151 68.5259C28.2126 67.3295 28.3406 65.9704 29.106 64.8482Z" fill="url(#paint0_linear)"/>
<path d="M66.3516 39.8153C73.0941 29.9289 70.5456 16.4498 60.6592 9.7074C50.7728 2.96499 37.2937 5.51347 30.5513 15.3999C30.2339 15.8653 29.9575 16.3445 29.6825 16.8247L29.6122 16.7768L22.0998 27.7923C20.0254 30.834 20.8097 34.9819 23.8513 37.0563L48.6362 53.9592C51.6778 56.0336 55.8258 55.2494 57.9002 52.2077L65.4126 41.1922L65.3424 41.1443C65.689 40.713 66.0342 40.2807 66.3516 39.8153ZM55.9639 16.5921C59.0056 18.6665 59.7898 22.8144 57.7154 25.8561C55.6411 28.8977 51.4931 29.682 48.4515 27.6076C45.4098 25.5332 44.6256 21.3853 46.6999 18.3436C48.7743 15.302 52.9223 14.5177 55.9639 16.5921Z" fill="url(#paint1_linear)"/>
</g>
<defs>
<linearGradient id="paint0_linear" x1="36.2692" y1="45.4706" x2="19.3239" y2="70.3174" gradientUnits="userSpaceOnUse">
<stop stop-color="#E5A505"/>
<stop offset="0.01" stop-color="#E9A804"/>
<stop offset="0.06" stop-color="#F4B102"/>
<stop offset="0.129" stop-color="#FBB600"/>
<stop offset="0.323" stop-color="#FDB700"/>
</linearGradient>
<linearGradient id="paint1_linear" x1="45.4331" y1="5.28069" x2="45.6301" y2="54.566" gradientUnits="userSpaceOnUse">
<stop stop-color="#FEDE00"/>
<stop offset="1" stop-color="#FFD000"/>
</linearGradient>
<clipPath id="clip0">
<rect width="80" height="80" fill="white"/>
</clipPath>
</defs>
</svg>
