<svg width="80" height="80" viewBox="0 0 80 80" fill="none" xmlns="http://www.w3.org/2000/svg">
<rect width="80" height="80" fill="#EEEEEE"/>
<path d="M56.5 15C56.5 18.3137 54.3137 21 51 21C47.6863 21 45.5 18.5 45 15C45 11.6863 47.6863 9 51 9C54.3137 9 55.5 11.5 56.5 15Z" fill="black"/>
<path d="M35 15C34.5 18.5 32.3137 21 29 21C25.6863 21 23.5 18.3137 23.5 15C23.5 11.5 25.6863 9 29 9C32.3137 9 35 11.6863 35 15Z" fill="black"/>
<path d="M18 27C18 30.3137 15.3137 33 12 33C8.68629 33 6.5 30.5 6 27C6 23.6863 8.68629 21 12 21C15.3137 21 18 23.6863 18 27Z" fill="black"/>
<path d="M74 27C73.5 30.5 71.3137 33 68 33C65 32 62 30.3137 62 27C62 23.6863 64.6863 21 68 21C71.3137 21 74 23.6863 74 27Z" fill="black"/>
<path d="M6 53C6 49.6863 8.68629 47 12 47C15.3137 47 18 49.6863 18 53C17.5 56.5 15.5 59 12 59C8.68629 59 6.5 56 6 53Z" fill="black"/>
<path d="M75 53C73.5 50.5 72.3137 46 69 46C65.6863 46 63 48.6863 63 52C63.5 55.5 65.5 58 69 58C72.3137 58 74 55.5 75 53Z" fill="black"/>
<path d="M23 66C24.5 63.5 25.6863 59 29 59C32.3137 59 35 61.6863 35 65C34.5 68.5 32.5 71 29 71C25.6863 71 24 68.5 23 66Z" fill="black"/>
<path d="M57 66C55.5 63.5 54.3137 59 51 59C47.6863 59 45 61.6863 45 65C45.5 68.5 47.5 71 51 71C54.3137 71 56 68.5 57 66Z" fill="black"/>
<path d="M29.622 1.92097C29.658 1.87205 29.6926 1.82515 29.7258 1.78035C29.7248 1.83163 29.724 1.88504 29.7232 1.94048C29.7153 2.53112 29.7183 3.35309 29.7622 4.27881C29.8497 6.12216 30.1007 8.40727 30.7675 10.092C31.2985 11.4334 32.3153 12.9553 33.1879 14.1309C33.6261 14.7213 34.0316 15.2291 34.3276 15.5894C34.4756 15.7696 34.5964 15.9131 34.6803 16.0116C34.6933 16.0269 34.7054 16.0411 34.7166 16.0542C34.6932 16.1197 34.6612 16.2074 34.6211 16.3123C34.528 16.5554 34.3918 16.8901 34.2194 17.2561C33.87 17.9975 33.3881 18.8313 32.836 19.3113C32.2218 19.8454 31.6641 20.2016 31.0656 20.4265C30.4672 20.6512 29.8134 20.75 29 20.75C28.1866 20.75 27.5328 20.6512 26.9344 20.4265C26.3359 20.2016 25.7782 19.8454 25.164 19.3113C24.6119 18.8313 24.13 17.9975 23.7806 17.2561C23.6082 16.8901 23.472 16.5554 23.3789 16.3123C23.3324 16.1908 23.2968 16.0925 23.273 16.0248C23.2676 16.0096 23.2628 15.9959 23.2586 15.9839C23.2652 15.9526 23.274 15.9105 23.285 15.8586C23.3114 15.7344 23.3504 15.5539 23.4007 15.329C23.5012 14.8791 23.6468 14.2519 23.8269 13.5434C24.1878 12.1229 24.6841 10.3883 25.2302 9.09742C25.938 7.42475 27.1762 5.44159 28.2452 3.86812C28.7783 3.08332 29.2668 2.404 29.622 1.92097Z" fill="white" stroke="black" stroke-width="0.5"/>
<path d="M14.0329 6.69271C14.2037 6.46074 14.3599 6.25094 14.4987 6.06618C14.4356 6.34614 14.363 6.67144 14.2834 7.03398C14.0033 8.30988 13.6358 10.0479 13.2863 11.8955C12.937 13.7424 12.6052 15.702 12.3972 17.4202C12.1903 19.1282 12.1014 20.629 12.2534 21.5411C12.3874 22.3453 12.8182 23.1631 13.3673 23.9272C13.9186 24.6942 14.6023 25.4248 15.2651 26.056C15.9286 26.6879 16.5755 27.2244 17.0563 27.6027C17.2969 27.792 17.4963 27.942 17.6358 28.0449C17.6598 28.0626 17.682 28.079 17.7024 28.0938C17.6808 28.1536 17.6536 28.2273 17.6211 28.3123C17.528 28.5554 17.3918 28.8901 17.2194 29.2561C16.87 29.9975 16.3881 30.8313 15.836 31.3113C15.2218 31.8454 14.6641 32.2016 14.0656 32.4265C13.4672 32.6512 12.8134 32.75 12 32.75C11.1827 32.75 10.5163 32.6641 9.91262 32.446C9.31085 32.2287 8.75675 31.8747 8.17229 31.3189C7.48453 30.6647 7.24632 30.1075 6.8842 29.2604C6.83527 29.1459 6.78408 29.0262 6.72921 28.9002C5.49749 26.0718 5.99849 23.6579 6.56161 20.9445C6.62277 20.6499 6.68466 20.3517 6.74515 20.049C7.30249 17.2601 9.40108 13.5468 11.3853 10.5054C12.3736 8.9905 13.3268 7.65228 14.0329 6.69271Z" fill="white" stroke="black" stroke-width="0.5"/>
<path d="M65.9671 6.69271C65.7963 6.46074 65.6401 6.25094 65.5013 6.06618C65.5644 6.34614 65.637 6.67144 65.7166 7.03398C65.9967 8.30988 66.3642 10.0479 66.7137 11.8955C67.063 13.7424 67.3948 15.702 67.6028 17.4202C67.8097 19.1282 67.8986 20.629 67.7466 21.5411C67.6126 22.3453 67.1818 23.1631 66.6327 23.9272C66.0814 24.6942 65.3977 25.4248 64.7349 26.056C64.0714 26.6879 63.4245 27.2244 62.9437 27.6027C62.7031 27.792 62.5037 27.942 62.3642 28.0449C62.3402 28.0626 62.318 28.079 62.2976 28.0938C62.3192 28.1536 62.3464 28.2273 62.3789 28.3123C62.472 28.5554 62.6082 28.8901 62.7806 29.2561C63.13 29.9975 63.6119 30.8313 64.164 31.3113C64.7782 31.8454 65.3359 32.2016 65.9344 32.4265C66.5328 32.6512 67.1866 32.75 68 32.75C68.8173 32.75 69.4837 32.6641 70.0874 32.446C70.6892 32.2287 71.2432 31.8747 71.8277 31.3189C72.5155 30.6647 72.7537 30.1075 73.1158 29.2604C73.1647 29.1459 73.2159 29.0262 73.2708 28.9002C74.5025 26.0718 74.0015 23.6579 73.4384 20.9445C73.3772 20.6499 73.3153 20.3517 73.2549 20.049C72.6975 17.2601 70.5989 13.5468 68.6147 10.5054C67.6264 8.9905 66.6732 7.65228 65.9671 6.69271Z" fill="white" stroke="black" stroke-width="0.5"/>
<path d="M6.95716 37.1926C7.27801 36.4837 7.58148 35.8628 7.81059 35.4085C7.81958 35.5273 7.82967 35.6562 7.84092 35.7943C7.90509 36.5811 8.00719 37.6636 8.15897 38.8457C8.46077 41.1963 8.96407 43.9872 9.77639 45.6118C11.0467 48.1524 13.073 50.3021 14.7714 51.8119C15.6221 52.5681 16.3941 53.1667 16.9538 53.5767C17.2338 53.7817 17.4608 53.9397 17.6183 54.0466C17.6479 54.0667 17.675 54.085 17.6996 54.1015C17.6785 54.1599 17.6522 54.2309 17.6211 54.3123C17.528 54.5554 17.3918 54.8901 17.2193 55.2561C16.8699 55.9975 16.3881 56.8313 15.836 57.3113C15.2218 57.8454 14.6641 58.2016 14.0656 58.4265C13.4671 58.6512 12.8134 58.75 12 58.75C11.1827 58.75 10.5163 58.6641 9.91262 58.446C9.31084 58.2287 8.75675 57.8747 8.17229 57.3189C7.99293 57.1483 7.75622 56.82 7.48808 56.3584C7.2231 55.9022 6.93712 55.3328 6.65592 54.6948C6.09317 53.4182 5.55543 51.8805 5.24432 50.447C4.54861 47.2413 4.60714 45.2766 5.24525 42.0485C5.54524 40.5309 6.28499 38.6777 6.95716 37.1926Z" fill="white" stroke="black" stroke-width="0.5"/>
<path d="M74.0428 36.6926C73.722 35.9837 73.4185 35.3628 73.1894 34.9085C73.1804 35.0273 73.1703 35.1562 73.1591 35.2943C73.0949 36.0811 72.9928 37.1636 72.841 38.3457C72.5392 40.6963 72.0359 43.4872 71.2236 45.1118C69.9533 47.6524 67.927 49.8021 66.2286 51.3119C65.3778 52.0681 64.6059 52.6667 64.0462 53.0767C63.7662 53.2817 63.5392 53.4397 63.3817 53.5466C63.3521 53.5667 63.325 53.585 63.3004 53.6015C63.3215 53.6599 63.3478 53.7309 63.3789 53.8123C63.472 54.0554 63.6082 54.3901 63.7806 54.7561C64.13 55.4975 64.6119 56.3313 65.164 56.8113C65.7782 57.3454 66.3359 57.7016 66.9344 57.9265C67.5328 58.1512 68.1866 58.25 69 58.25C69.8173 58.25 70.4837 58.1641 71.0874 57.946C71.6891 57.7287 72.2432 57.3747 72.8277 56.8189C73.0071 56.6483 73.2438 56.32 73.5119 55.8584C73.7769 55.4022 74.0629 54.8328 74.3441 54.1948C74.9068 52.9182 75.4446 51.3805 75.7557 49.947C76.4514 46.7413 76.3928 44.7766 75.7547 41.5485C75.4547 40.0309 74.715 38.1777 74.0428 36.6926Z" fill="white" stroke="black" stroke-width="0.5"/>
<path d="M29.622 51.921C29.658 51.872 29.6926 51.8251 29.7258 51.7804C29.7248 51.8316 29.724 51.885 29.7232 51.9405C29.7153 52.5311 29.7183 53.3531 29.7622 54.2788C29.8497 56.1222 30.1007 58.4073 30.7675 60.092C31.2985 61.4334 32.3153 62.9553 33.1879 64.1309C33.6261 64.7213 34.0316 65.2291 34.3276 65.5894C34.4756 65.7696 34.5964 65.9131 34.6803 66.0116C34.6933 66.0269 34.7054 66.0411 34.7166 66.0542C34.6932 66.1197 34.6612 66.2074 34.6211 66.3123C34.528 66.5554 34.3918 66.8901 34.2194 67.2561C33.87 67.9975 33.3881 68.8313 32.836 69.3113C32.2218 69.8454 31.6641 70.2016 31.0656 70.4265C30.4672 70.6512 29.8134 70.75 29 70.75C28.1866 70.75 27.5328 70.6512 26.9344 70.4265C26.3359 70.2016 25.7782 69.8454 25.164 69.3113C24.6119 68.8313 24.13 67.9975 23.7806 67.2561C23.6082 66.8901 23.472 66.5554 23.3789 66.3123C23.3324 66.1908 23.2968 66.0925 23.273 66.0248C23.2676 66.0096 23.2628 65.9959 23.2586 65.9839C23.2652 65.9526 23.274 65.9105 23.285 65.8586C23.3114 65.7344 23.3504 65.5539 23.4007 65.329C23.5012 64.8791 23.6468 64.2519 23.8269 63.5434C24.1878 62.1229 24.6841 60.3883 25.2302 59.0974C25.938 57.4248 27.1762 55.4416 28.2452 53.8681C28.7783 53.0833 29.2668 52.404 29.622 51.921Z" fill="white" stroke="black" stroke-width="0.5"/>
<path d="M50.378 1.92097C50.342 1.87205 50.3074 1.82515 50.2742 1.78035C50.2752 1.83163 50.276 1.88504 50.2768 1.94048C50.2847 2.53112 50.2817 3.35309 50.2378 4.27881C50.1503 6.12216 49.8993 8.40727 49.2325 10.092C48.7015 11.4334 47.6847 12.9553 46.8121 14.1309C46.3739 14.7213 45.9684 15.2291 45.6724 15.5894C45.5244 15.7696 45.4036 15.9131 45.3197 16.0116C45.3067 16.0269 45.2946 16.0411 45.2834 16.0542C45.3068 16.1197 45.3388 16.2074 45.3789 16.3123C45.472 16.5554 45.6082 16.8901 45.7806 17.2561C46.13 17.9975 46.6119 18.8313 47.164 19.3113C47.7782 19.8454 48.3359 20.2016 48.9344 20.4265C49.5328 20.6512 50.1866 20.75 51 20.75C51.8134 20.75 52.4672 20.6512 53.0656 20.4265C53.6641 20.2016 54.2218 19.8454 54.836 19.3113C55.3881 18.8313 55.87 17.9975 56.2194 17.2561C56.3918 16.8901 56.528 16.5554 56.6211 16.3123C56.6676 16.1908 56.7032 16.0925 56.727 16.0248C56.7324 16.0096 56.7372 15.9959 56.7414 15.9839C56.7348 15.9526 56.726 15.9105 56.715 15.8586C56.6886 15.7344 56.6496 15.5539 56.5993 15.329C56.4988 14.8791 56.3532 14.2519 56.1731 13.5434C55.8122 12.1229 55.3159 10.3883 54.7698 9.09742C54.062 7.42475 52.8238 5.44159 51.7548 3.86812C51.2217 3.08332 50.7332 2.404 50.378 1.92097Z" fill="white" stroke="black" stroke-width="0.5"/>
<path d="M50.378 51.921C50.342 51.872 50.3074 51.8251 50.2742 51.7804C50.2752 51.8316 50.276 51.885 50.2768 51.9405C50.2847 52.5311 50.2817 53.3531 50.2378 54.2788C50.1503 56.1222 49.8993 58.4073 49.2325 60.092C48.7015 61.4334 47.6847 62.9553 46.8121 64.1309C46.3739 64.7213 45.9684 65.2291 45.6724 65.5894C45.5244 65.7696 45.4036 65.9131 45.3197 66.0116C45.3067 66.0269 45.2946 66.0411 45.2834 66.0542C45.3068 66.1197 45.3388 66.2074 45.3789 66.3123C45.472 66.5554 45.6082 66.8901 45.7806 67.2561C46.13 67.9975 46.6119 68.8313 47.164 69.3113C47.7782 69.8454 48.3359 70.2016 48.9344 70.4265C49.5328 70.6512 50.1866 70.75 51 70.75C51.8134 70.75 52.4672 70.6512 53.0656 70.4265C53.6641 70.2016 54.2218 69.8454 54.836 69.3113C55.3881 68.8313 55.87 67.9975 56.2194 67.2561C56.3918 66.8901 56.528 66.5554 56.6211 66.3123C56.6676 66.1908 56.7032 66.0925 56.727 66.0248C56.7324 66.0096 56.7372 65.9959 56.7414 65.9839C56.7348 65.9526 56.726 65.9105 56.715 65.8586C56.6886 65.7344 56.6496 65.5539 56.5993 65.329C56.4988 64.8791 56.3532 64.2519 56.1731 63.5434C55.8122 62.1229 55.3159 60.3883 54.7698 59.0974C54.062 57.4248 52.8238 55.4416 51.7548 53.8681C51.2217 53.0833 50.7332 52.404 50.378 51.921Z" fill="white" stroke="black" stroke-width="0.5"/>
</svg>
